<svg version="1.1" xmlns="http://www.w3.org/2000/svg" viewBox="0 0 573.9752807617188 475.08436584472656" width="573.9752807617188" height="475.08436584472656">
  <!-- svg-source:excalidraw -->
  
  <defs>
    <style>
      @font-face {
        font-family: "Virgil";
        src: url("https://excalidraw.com/Virgil.woff2");
      }
      @font-face {
        font-family: "Cascadia";
        src: url("https://excalidraw.com/Cascadia.woff2");
      }
    </style>
  </defs>
  <rect x="0" y="0" width="573.9752807617188" height="475.08436584472656" fill="#ffffff"></rect><g stroke-linecap="round" transform="translate(241.7099609375 10) rotate(0 78 23.242782592773438)"><path d="M-0.04 0.16 C46.04 -2.26, 95.2 -1.27, 157.73 0.91 M0.59 -0.67 C58.72 0.81, 118.35 -0.05, 156.84 -0.13 M155.08 0.45 C156.12 14.46, 153.78 30.41, 155.64 46.07 M155.76 0.59 C157.24 13.81, 157.12 26.33, 156.98 47.16 M154.28 47.41 C102.71 47.72, 47.48 47.52, 1.29 47.9 M156 46.18 C115.48 46.14, 73.81 46, 0.05 47.16 M1.98 47.51 C-0.11 32.24, -1.45 21.04, 1.42 1.16 M-0.64 46.13 C-0.29 36.19, -0.66 26.33, 0.48 -0.06" stroke="#000000" stroke-width="1" fill="none"></path></g><g transform="translate(246.47196093749994 20.742782592773438) rotate(0 73 12.5)"><text x="73" y="18" font-family="Virgil, Segoe UI Emoji" font-size="20px" fill="#000000" text-anchor="middle" style="white-space: pre;" direction="ltr">Siren</text></g><g stroke-linecap="round" transform="translate(96.53082275390625 138.31895446777344) rotate(0 78 23.242782592773438)"><path d="M-0.52 0.11 C62.68 -1.36, 123.71 -2.65, 157.98 1.02 M0.6 0.71 C48.43 0.17, 95.75 1.02, 155.36 -0.35 M157.18 0.96 C155.91 11.71, 155.63 25.56, 154.35 44.81 M155.18 0.96 C155.72 12.37, 156.94 26.51, 156.92 46.21 M157.07 47.44 C96.73 45.01, 34.71 46.62, 1.13 48.13 M156.12 46.36 C114.83 46.45, 73.55 45.71, 0.33 46.94 M0.83 47.75 C1.21 33.61, 0.79 17.57, 1.68 -1.93 M0.51 46.9 C0.3 33.76, -0.63 21.88, 0.35 -0.42" stroke="#000000" stroke-width="1" fill="none"></path></g><g transform="translate(101.53082275390625 149.06173706054688) rotate(0 73 12.5)"><text x="73" y="18" font-family="Virgil, Segoe UI Emoji" font-size="20px" fill="#000000" text-anchor="middle" style="white-space: pre;" direction="ltr">Providers</text></g><g stroke-linecap="round" transform="translate(97.59649658203125 270.7399139404297) rotate(0 78 23.242782592773438)"><path d="M1.51 -0.07 C45.69 -1.9, 93 -1.39, 154.06 0.86 M-0.84 -0.34 C49.93 1.63, 98.87 1.38, 155.98 -0.16 M154.79 -1.6 C157.9 19.36, 155.88 35.71, 155.97 48.42 M156.84 -0.75 C156.4 13.59, 156.51 26.66, 155.08 45.83 M156.45 45.22 C115.74 47.97, 79.04 48.22, 1.28 46.79 M155.86 47.07 C96.48 44.92, 37.37 45.49, 0.76 45.92 M0.96 45.39 C-0.36 31.69, -0.66 13.81, -0.93 1.92 M0.43 45.49 C-1.25 31.42, -0.96 15.61, 0.93 0.67" stroke="#000000" stroke-width="1" fill="none"></path></g><g transform="translate(102.59649658203125 281.4826965332031) rotate(0 73 12.5)"><text x="73" y="18" font-family="Virgil, Segoe UI Emoji" font-size="20px" fill="#000000" text-anchor="middle" style="white-space: pre;" direction="ltr">Namespaces</text></g><g stroke-linecap="round"><g transform="translate(305.60272216796875 60.31988525390625) rotate(0 -58.83509306263181 37.031740309242196)"><path d="M-0.38 -0.39 C-20.38 12.24, -99.06 63.26, -118.84 75.7 M1.62 -1.64 C-18.55 10.64, -99.11 61.11, -119.29 73.91" stroke="#000000" stroke-width="1" fill="none"></path></g><g transform="translate(305.60272216796875 60.31988525390625) rotate(0 -58.83509306263181 37.031740309242196)"><path d="M-101.54 51.8 C-107.13 60.76, -116.83 67.62, -119.29 74.45 M-100.98 50.73 C-106.88 57.17, -112.82 66.2, -120.13 73.56" stroke="#000000" stroke-width="1" fill="none"></path></g><g transform="translate(305.60272216796875 60.31988525390625) rotate(0 -58.83509306263181 37.031740309242196)"><path d="M-90.61 69.17 C-100.5 71.23, -114.53 71.24, -119.29 74.45 M-90.04 68.1 C-99.34 69.08, -108.75 72.61, -120.13 73.56" stroke="#000000" stroke-width="1" fill="none"></path></g></g><g stroke-linecap="round"><g transform="translate(312.6680920400827 58.637908935546875) rotate(0 65.29797659404272 35.056090715918685)"><path d="M0.7 0.61 C22.39 12.46, 109.29 58.6, 130.99 70.23 M-0.39 -0.12 C21.08 11.43, 108.36 56.82, 130.11 68.22" stroke="#000000" stroke-width="1" fill="none"></path></g><g transform="translate(312.6680920400827 58.637908935546875) rotate(0 65.29797659404272 35.056090715918685)"><path d="M101.38 64.49 C111.73 65.57, 123.09 67.6, 128.79 68.98 M100.64 63.73 C107.72 66.06, 113.2 65.25, 129.99 69.13" stroke="#000000" stroke-width="1" fill="none"></path></g><g transform="translate(312.6680920400827 58.637908935546875) rotate(0 65.29797659404272 35.056090715918685)"><path d="M110.88 46.3 C117.57 54.19, 125.4 62.97, 128.79 68.98 M110.14 45.54 C115.16 51.89, 118.55 55.09, 129.99 69.13" stroke="#000000" stroke-width="1" fill="none"></path></g></g><g stroke-linecap="round" transform="translate(407.97528076171875 134.8199920654297) rotate(0 78 23.242782592773438)"><path d="M1.73 -0.57 C43.14 0.03, 83.99 0.86, 157.44 -0.52 M0.3 0.1 C47.94 -1.41, 94.13 -1.61, 156.63 -0.11 M157.27 1.78 C157.82 14.9, 157.52 35.33, 157.89 45.27 M155.39 -0.63 C155.85 17.48, 156.63 33.42, 155.22 46.36 M157.32 44.61 C119.71 48.73, 81.26 46.67, -0.5 46.33 M156.02 46.94 C107.71 44.26, 57.29 44.74, 0.35 45.49 M-0.06 44.55 C1.3 35.45, -0.77 25.81, 0.14 -1.96 M0.07 47.12 C0.73 34.46, 0.66 22.15, -0.49 0.41" stroke="#000000" stroke-width="1" fill="none"></path></g><g transform="translate(412.97528076171875 145.56277465820312) rotate(0 73 12.5)"><text x="73" y="18" font-family="Virgil, Segoe UI Emoji" font-size="20px" fill="#000000" text-anchor="middle" style="white-space: pre;" direction="ltr">Receivers</text></g><g stroke-linecap="round"><g transform="translate(164.48876953125 183.98550415039062) rotate(0 0.35737430135719706 44.44844948904591)"><path d="M0.61 -0.31 C0.66 14.55, -0.61 73.86, -0.69 88.9 M-0.52 -1.52 C-0.04 13.57, 1.44 75.48, 1.4 90.41" stroke="#000000" stroke-width="1" fill="none"></path></g><g transform="translate(164.48876953125 183.98550415039062) rotate(0 0.35737430135719706 44.44844948904591)"><path d="M-9.74 60.37 C-7.01 67.9, -3.01 73.94, 0.94 90.85 M-8.9 61.81 C-5.89 70.06, -3.73 78.07, 2.18 91.03" stroke="#000000" stroke-width="1" fill="none"></path></g><g transform="translate(164.48876953125 183.98550415039062) rotate(0 0.35737430135719706 44.44844948904591)"><path d="M10.78 60.1 C8.99 67.8, 8.49 73.89, 0.94 90.85 M11.62 61.54 C9.14 69.8, 5.83 77.89, 2.18 91.03" stroke="#000000" stroke-width="1" fill="none"></path></g></g><g stroke-linecap="round" transform="translate(226.2745361328125 412.93455505371094) rotate(0 78 23.242782592773438)"><path d="M-0.52 -1.38 C34.7 -0.1, 67.54 -0.84, 155.99 -1.91 M0.24 -0.27 C59.58 0.24, 120.24 0.7, 155.1 -0.13 M154.63 1.29 C154.54 17.68, 157.3 35.22, 157.35 46.83 M156.36 0.27 C156.1 12.49, 155.82 26.78, 156.91 45.5 M156.83 45.61 C115.74 46.18, 77.87 45.94, 0.85 46.72 M155.3 46.2 C94.03 45.62, 34.42 45.77, -0.54 45.94 M1.24 46.4 C1.24 30.56, -1.72 15.71, -1.54 0.66 M-0.18 45.96 C-0.24 32.22, 0.28 18.47, -0.17 0.06" stroke="#000000" stroke-width="1" fill="none"></path></g><g transform="translate(231.2745361328125 423.6773376464844) rotate(0 73 12.5)"><text x="73" y="18" font-family="Virgil, Segoe UI Emoji" font-size="20px" fill="#000000" text-anchor="middle" style="white-space: pre;" direction="ltr">Subscription</text></g><g stroke-linecap="round" transform="translate(10 418.5988006591797) rotate(0 78 23.242782592773438)"><path d="M-0.41 1.31 C33.07 -0.78, 63.04 -1.73, 156.58 -1.2 M-0.24 0.88 C45.85 0.66, 93.62 0.24, 156.55 0.6 M156.95 1.64 C155.09 14.3, 156.42 29.02, 154.25 45.25 M156.34 0.28 C156.82 18.44, 156.72 34.54, 156.41 47.44 M154.46 46.53 C103.59 44.84, 49.47 46.42, -0.22 45.04 M155.97 45.5 C108.94 46.6, 63 45.15, 0.71 46.29 M-0.24 46.78 C-0.76 33.68, -0.56 21.69, 1.42 -0.1 M0.74 47.46 C-0.11 36.55, 0.37 26.81, 0.25 -0.69" stroke="#000000" stroke-width="1" fill="none"></path></g><g transform="translate(15 429.3415832519531) rotate(0 73 12.5)"><text x="73" y="18" font-family="Virgil, Segoe UI Emoji" font-size="20px" fill="#000000" text-anchor="middle" style="white-space: pre;" direction="ltr">Rules</text></g><g stroke-linecap="round"><g transform="translate(171.50469970703125 316.7727966308594) rotate(0 -39.457751704398504 49.05312484156343)"><path d="M0.03 -0.1 C-12.92 16.43, -64.91 81.58, -77.73 98.27 M-1.42 -1.2 C-14.56 15.54, -66.26 82.75, -78.94 99.3" stroke="#000000" stroke-width="1" fill="none"></path></g><g transform="translate(171.50469970703125 316.7727966308594) rotate(0 -39.457751704398504 49.05312484156343)"><path d="M-70.07 69.86 C-74.4 79.67, -74.1 86.32, -80.16 101.16 M-69.05 70.88 C-71.96 79.68, -75.87 89.54, -77.96 98.72" stroke="#000000" stroke-width="1" fill="none"></path></g><g transform="translate(171.50469970703125 316.7727966308594) rotate(0 -39.457751704398504 49.05312484156343)"><path d="M-53.8 82.36 C-62.83 88.49, -67.33 91.45, -80.16 101.16 M-52.77 83.38 C-60.88 88.05, -70 93.91, -77.96 98.72" stroke="#000000" stroke-width="1" fill="none"></path></g></g><g stroke-linecap="round"><g transform="translate(171.36322021484375 320.6991882324219) rotate(0 52.74399352295325 45.56197982837443)"><path d="M0.08 -1.01 C17.35 14.25, 86.99 75.65, 104.48 91.22 M-1.34 1.08 C16.26 16.46, 89.25 76.68, 106.83 92.13" stroke="#000000" stroke-width="1" fill="none"></path></g><g transform="translate(171.36322021484375 320.6991882324219) rotate(0 52.74399352295325 45.56197982837443)"><path d="M77.01 80.57 C87.04 85.23, 99.43 90.85, 105.39 90.65 M78.58 82.19 C84.89 83.73, 91.85 87.36, 106.05 91.39" stroke="#000000" stroke-width="1" fill="none"></path></g><g transform="translate(171.36322021484375 320.6991882324219) rotate(0 52.74399352295325 45.56197982837443)"><path d="M90.29 64.92 C95.38 75.35, 102.88 86.74, 105.39 90.65 M91.85 66.54 C95.21 71.71, 99.11 78.95, 106.05 91.39" stroke="#000000" stroke-width="1" fill="none"></path></g></g><g stroke-linecap="round"><g transform="translate(476.72802734375 181.18386840820312) rotate(0 -97.87030012914909 116.49278811972584)"><path d="M0.11 0.28 C-32.38 38.9, -162.39 193.41, -194.79 232.02 M-1.3 -0.62 C-33.97 38.19, -163.58 194.62, -195.85 233.6" stroke="#000000" stroke-width="1" fill="none"></path></g><g transform="translate(476.72802734375 181.18386840820312) rotate(0 -97.87030012914909 116.49278811972584)"><path d="M-185.3 205.01 C-188.67 214.63, -191.91 224.58, -197.18 233.03 M-186.04 205.28 C-189.03 212.91, -191.99 219.76, -195.03 233.1" stroke="#000000" stroke-width="1" fill="none"></path></g><g transform="translate(476.72802734375 181.18386840820312) rotate(0 -97.87030012914909 116.49278811972584)"><path d="M-169.49 218.1 C-177.81 223.67, -185.96 229.55, -197.18 233.03 M-170.23 218.37 C-177.59 222.41, -184.82 225.72, -195.03 233.1" stroke="#000000" stroke-width="1" fill="none"></path></g></g></svg>