<svg version="1.1" xmlns="http://www.w3.org/2000/svg" viewBox="0 0 748.4700317382812 267.2621765136719" width="2245.4100952148438" height="801.7865295410156">
  <!-- svg-source:excalidraw -->
  
  <defs>
    <style>
      @font-face {
        font-family: "Virgil";
        src: url("https://excalidraw.com/Virgil.woff2");
      }
      @font-face {
        font-family: "Cascadia";
        src: url("https://excalidraw.com/Cascadia.woff2");
      }
    </style>
  </defs>
  <rect x="0" y="0" width="748.4700317382812" height="267.2621765136719" fill="#ffffff"></rect><g stroke-linecap="round" transform="translate(13.12890625 20.264129638671875) rotate(0 69.05514526367188 28.019821166992188)"><path d="M0 -0.88 C34.04 1.75, 67.04 1.5, 138.03 -1.3 M-0.4 0.82 C27.58 1.68, 57.68 1.4, 137.44 -0.37 M137.72 1.46 C138.4 13.75, 138.87 25.31, 138.03 56.55 M137.49 0.45 C138.61 15.36, 136.88 31.11, 137.51 56.56 M137.45 56.98 C107.99 55.29, 73.11 56.25, 0 55.71 M138.43 55.9 C90.06 55.77, 42.64 54.63, -0.87 55.99 M-1.89 56.48 C-0.25 39.25, 1.76 22.39, 1.31 -0.28 M-0.31 56.79 C-0.16 36.01, -0.08 17.32, -0.1 -0.2" stroke="#000000" stroke-width="1" fill="none"></path></g><g transform="translate(54.8126220703125 38.034912109375) rotate(0 28 12.5)"><text x="0" y="18" font-family="Virgil, Segoe UI Emoji" font-size="20px" fill="#000000" text-anchor="start" style="white-space: pre;" direction="ltr">Siren </text></g><g stroke-linecap="round" transform="translate(517.4700317382812 16.62646484375) rotate(0 110.5 28.181564331054688)"><path d="M0.94 -0.65 C58.6 0.58, 118.65 2.65, 222.16 1.14 M-0.6 0.55 C66.54 -0.24, 134.44 -0.48, 221.86 0.7 M220.71 -0.88 C221.27 18.99, 220.92 37.82, 221.65 56.17 M220.94 0.16 C221.72 21.62, 220.45 43.85, 220.66 56.21 M220.97 56.47 C173.04 57.86, 122.43 58.03, 1.72 56.25 M221.79 55.57 C153.12 55.42, 82.74 55.01, 0.18 56.49 M-1.76 57.24 C0.82 35.09, -1.82 14.1, 1.89 0.92 M0.79 56.13 C-0.37 35.42, 0.29 13.61, -0.61 -0.82" stroke="#000000" stroke-width="1" fill="none"></path></g><g transform="translate(522.4700317382812 32.30802917480469) rotate(0 105.5 12.5)"><text x="105.5" y="18" font-family="Virgil, Segoe UI Emoji" font-size="20px" fill="#000000" text-anchor="middle" style="white-space: pre;" direction="ltr">Monitoring Provider</text></g><g stroke-linecap="round"><g transform="translate(153.71075439453125 32.29679588436568) rotate(0 181.32074426462873 2.214380626644811)"><path d="M0.32 0.86 C61.08 1.49, 303.26 2.48, 363.62 3.21 M-0.98 0.27 C59.79 1.05, 302.7 3.65, 363.12 4.16" stroke="#000000" stroke-width="1" fill="none"></path></g><g transform="translate(153.71075439453125 32.29679588436568) rotate(0 181.32074426462873 2.214380626644811)"><path d="M336.27 15.57 C339.18 11.4, 348.67 9.25, 363.65 5.03 M335.26 13.89 C343.6 11.18, 350.96 7.25, 362.82 4.45" stroke="#000000" stroke-width="1" fill="none"></path></g><g transform="translate(153.71075439453125 32.29679588436568) rotate(0 181.32074426462873 2.214380626644811)"><path d="M336.47 -4.95 C339.24 -4.66, 348.69 -2.34, 363.65 5.03 M335.46 -6.63 C343.71 -3.23, 351 -1.06, 362.82 4.45" stroke="#000000" stroke-width="1" fill="none"></path></g></g><g transform="translate(226.70733642578125 10) rotate(0 125 25)"><text x="0" y="18" font-family="Virgil, Segoe UI Emoji" font-size="20px" fill="#000000" text-anchor="start" style="white-space: pre;" direction="ltr">Rule management</text><text x="0" y="43" font-family="Virgil, Segoe UI Emoji" font-size="20px" fill="#000000" text-anchor="start" style="white-space: pre;" direction="ltr">Alert routing management</text></g><g stroke-linecap="round" transform="translate(10 212.48330688476562) rotate(0 68 22.389434814453125)"><path d="M0.4 -1.01 C51.77 1.76, 105.44 -0.98, 135.38 1.89 M-0.04 0.16 C49.17 -0.5, 99.35 -0.62, 136.66 0.35 M134.45 0.37 C137.33 11.98, 136.03 22.67, 136.02 44.5 M135.05 -0.06 C136.93 12.04, 137.35 23.87, 136.91 44.61 M137.71 45.41 C91.73 43.85, 44.97 43.26, -1.15 43.78 M136.09 44.72 C104.24 44.25, 74.69 43.9, 0.66 45.33 M-0.8 45.72 C-1.82 32.01, -1.34 24.43, -1.12 1.8 M0.35 45.45 C-0.48 32.26, -0.16 17.95, -0.57 -0.92" stroke="#000000" stroke-width="1" fill="none"></path></g><g transform="translate(14.76649999999995 222.37274169921875) rotate(0 63 12.5)"><text x="63" y="18" font-family="Virgil, Segoe UI Emoji" font-size="20px" fill="#000000" text-anchor="middle" style="white-space: pre;" direction="ltr">PostgresDB</text></g><g stroke-linecap="round"><g transform="translate(70.56936950372165 79.54052083145825) rotate(0 -0.6012461947165662 65.77486965542658)"><path d="M0.34 0.1 C0.27 22.01, -0.55 109.3, -0.9 131.24 M-0.94 -0.9 C-1.08 21.19, -1.25 110.13, -1.54 132.45" stroke="#000000" stroke-width="1" fill="none"></path></g><g transform="translate(70.56936950372165 79.54052083145825) rotate(0 -0.6012461947165662 65.77486965542658)"><path d="M-11.45 105.16 C-10.1 111.09, -6.64 119.7, -0.34 133.24 M-12.11 103.65 C-8.33 115.33, -3.85 125.44, -1.22 131.96" stroke="#000000" stroke-width="1" fill="none"></path></g><g transform="translate(70.56936950372165 79.54052083145825) rotate(0 -0.6012461947165662 65.77486965542658)"><path d="M9.07 105.3 C5.05 111.25, 3.14 119.83, -0.34 133.24 M8.41 103.78 C4.62 115.49, 1.53 125.56, -1.22 131.96" stroke="#000000" stroke-width="1" fill="none"></path></g></g><g transform="translate(75.3077392578125 94.83627319335938) rotate(0 73.5 37.5)"><text x="0" y="18" font-family="Virgil, Segoe UI Emoji" font-size="20px" fill="#000000" text-anchor="start" style="white-space: pre;" direction="ltr">Stores rules, </text><text x="0" y="43" font-family="Virgil, Segoe UI Emoji" font-size="20px" fill="#000000" text-anchor="start" style="white-space: pre;" direction="ltr">subscriptions &amp;</text><text x="0" y="68" font-family="Virgil, Segoe UI Emoji" font-size="20px" fill="#000000" text-anchor="start" style="white-space: pre;" direction="ltr">auth keys</text></g></svg>