<?xml version="1.0" encoding="UTF-8"?>
<svg width="136px" height="136px" viewBox="0 0 136 136" version="1.1" xmlns="http://www.w3.org/2000/svg" xmlns:xlink="http://www.w3.org/1999/xlink">
    <title>Logos/Coloured/siren</title>
    <g id="Guardian" stroke="none" stroke-width="1" fill="none" fill-rule="evenodd">
        <g id="Guardian---Overview" transform="translate(-177.000000, -123.000000)">
            <g id="Siren" transform="translate(177.000000, 123.000000)">
                <path d="M67.4075268,0.00251028997 C105.432277,-0.32048971 136.320214,30.5685103 135.997214,68.5921978 C135.682714,105.511948 105.510902,135.68376 68.5911518,135.99826 C30.5664018,136.32126 -0.321535657,105.433323 0.00252684301,67.4085728 C0.315964343,30.4888228 30.4877768,0.31701029 67.4075268,0.00251028997" id="Fill-202" fill="#E8E8E8"></path>
                <path d="M95.4807956,89.1549728 L83.8411081,45.9430978 C83.6891706,45.3810353 83.1802331,44.9910978 82.5979831,44.9910978 L53.1082956,44.9910978 C52.5260456,44.9910978 52.0181706,45.3810353 51.8651706,45.9409728 L40.2084831,88.9594728 L46.3858581,89.2856603 L56.0662956,53.5367853 C56.2171706,52.9821603 56.7866706,52.6549103 57.3412956,52.8057853 L59.6426706,53.4294728 C60.1951706,53.5803478 60.5224206,54.1498478 60.3715456,54.7034103 L50.8069206,89.8052228 L95.4807956,89.1549728 Z" id="Fill-204" fill="#EE2737"></path>
                <path d="M98.6672331,88.048804 L36.7266706,88.048804 C35.8299206,88.048804 35.1042331,88.775554 35.1042331,89.670179 L35.1042331,100.773304 C35.1042331,101.840054 35.9691081,102.705992 37.0369206,102.705992 L98.6672331,102.705992 C99.7350456,102.705992 100.599921,101.840054 100.599921,100.773304 L100.599921,89.980429 C100.599921,88.913679 99.7350456,88.048804 98.6672331,88.048804" id="Fill-206" fill="#2D2D2D"></path>
                <path d="M64.9888518,24.742929 L67.5176018,37.4727415 C67.5824143,37.803179 68.0562893,37.805304 68.1232268,37.473804 L70.7146643,24.7546165 C70.7529143,24.562304 70.6073518,24.383804 70.4118518,24.3827415 L65.2916643,24.3731743 C65.0972268,24.3721165 64.9506018,24.5506165 64.9888518,24.742929" id="Fill-208" fill="#B6202D"></path>
                <path d="M36.6427331,37.5074853 L48.6712956,42.3822353 C48.9836706,42.5097353 49.2439831,42.1144853 49.0059831,41.8764853 L39.7962331,32.7272978 C39.6581081,32.5902353 39.4275456,32.6146728 39.3212956,32.7772353 L36.5003581,37.0506103 C36.3941081,37.2142353 36.4621081,37.4341728 36.6427331,37.5074853" id="Fill-210" fill="#B6202D"></path>
                <path d="M29.8205268,69.5599228 L41.7704643,64.5236728 C42.0839018,64.3919228 41.9882768,63.9254853 41.6504018,63.926546 L28.6794018,63.9499228 C28.4817768,63.9499228 28.3362143,64.1305478 28.3755268,64.3217978 L29.3955268,69.3357353 C29.4348393,69.5280478 29.6399018,69.6353603 29.8205268,69.5599228" id="Fill-212" fill="#B6202D"></path>
                <path d="M96.2039331,32.7262353 L86.9867456,41.8828603 C86.7498081,42.1197978 87.0079956,42.5118603 87.3193081,42.3864853 L99.3584956,37.5064228 C99.5380581,37.4341728 99.6049956,37.2142353 99.4987456,37.0516728 L96.6767456,32.7751103 C96.5704956,32.6136103 96.3420581,32.5891728 96.2039331,32.7262353" id="Fill-214" fill="#B6202D"></path>
                <path d="M107.319702,63.949604 L94.3487018,63.9272897 C94.0097643,63.926229 93.9152018,64.391604 94.2275768,64.523354 L106.178577,69.559604 C106.359202,69.636104 106.564264,69.527729 106.603577,69.3354165 L107.623577,64.3225415 C107.662889,64.130229 107.516264,63.949604 107.319702,63.949604" id="Fill-216" fill="#B6202D"></path>
                <path d="M60.3715456,54.7025603 C60.5224206,54.1489978 60.1951706,53.5794978 59.6416081,53.4296853 L57.3402331,52.8059978 C56.7866706,52.6551228 56.2171706,52.9823728 56.0662956,53.5359353 L46.7205456,88.0491228 L51.2861081,88.0491228 L60.3715456,54.7025603 Z" id="Fill-218" fill="#FFFFFF"></path>
            </g>
        </g>
    </g>
</svg>